<svg preserveAspectRatio="none" overflow="visible" style="display: block;" width="30" height="30" viewBox="0 0 30 30" fill="none" xmlns="http://www.w3.org/2000/svg">
<g id="Heart">
<path id="Union" d="M16.6199 8.21315L17.2705 8.88813L17.2706 8.88808L16.6199 8.21315ZM24.7195 8.21315L25.3702 7.53828L25.3702 7.53823L24.7195 8.21315ZM24.7195 16.0237L25.3701 16.6987L25.3703 16.6985L24.7195 16.0237ZM22.4715 18.1907L21.8208 17.5157C21.793 17.5425 21.7669 17.571 21.7426 17.601L22.4715 18.1907ZM22.3894 18.2825L21.7387 17.6076L21.7387 17.6076L22.3894 18.2825ZM15.7185 24.7151L16.3692 25.39L16.3693 25.39L15.7185 24.7151ZM14.8435 24.9856L14.9877 24.0592L14.9787 24.0579L14.8435 24.9856ZM14.281 24.7131L13.6303 25.388L13.6303 25.388L14.281 24.7131ZM7.60818 18.2786L6.95733 18.9533L6.95743 18.9534L7.60818 18.2786ZM7.53396 18.1985L8.25469 17.599C8.23274 17.5726 8.20935 17.5474 8.18463 17.5236L7.53396 18.1985ZM5.27908 16.0247L4.62831 16.6995L4.62841 16.6996L5.27908 16.0247ZM5.27908 8.21608L4.62834 7.54121L4.62833 7.54122L5.27908 8.21608ZM13.3777 8.21608L14.0285 7.54127L14.0285 7.54121L13.3777 8.21608ZM14.9969 9.7776L14.3461 10.4524C14.7092 10.8026 15.2843 10.8027 15.6475 10.4526L14.9969 9.7776ZM16.6199 8.21315L17.2706 8.88808C19.1442 7.08183 22.1953 7.08179 24.0688 8.88806L24.7195 8.21315L25.3702 7.53823C22.7703 5.0317 18.5691 5.03182 15.9692 7.53821L16.6199 8.21315ZM24.7195 8.21315L24.0688 8.88801C25.9232 10.6761 25.9231 13.5607 24.0687 15.3488L24.7195 16.0237L25.3703 16.6985C27.9892 14.173 27.9894 10.0638 25.3702 7.53828L24.7195 8.21315ZM24.7195 16.0237L24.0689 15.3487L21.8208 17.5157L22.4715 18.1907L23.1221 18.8657L25.3701 16.6987L24.7195 16.0237ZM22.4715 18.1907L21.7426 17.601C21.734 17.6117 21.7302 17.6161 21.7289 17.6176C21.7278 17.6188 21.7313 17.6147 21.7387 17.6076L22.3894 18.2825L23.0402 18.9573C23.1126 18.8875 23.1683 18.8199 23.2003 18.7804L22.4715 18.1907ZM22.3894 18.2825L21.7387 17.6076L15.0678 24.0402L15.7185 24.7151L16.3693 25.39L23.0402 18.9573L22.3894 18.2825ZM15.7185 24.7151L15.0679 24.0402C15.0564 24.0512 15.0294 24.0658 14.9877 24.0593L14.8435 24.9856L14.6994 25.912C15.2757 26.0016 15.9041 25.8384 16.3692 25.39L15.7185 24.7151ZM14.8435 24.9856L14.9787 24.0579C14.9517 24.054 14.9382 24.0444 14.9318 24.0383L14.281 24.7131L13.6303 25.388C13.9407 25.6873 14.324 25.8573 14.7084 25.9133L14.8435 24.9856ZM14.281 24.7131L14.9318 24.0383L8.25894 17.6037L7.60818 18.2786L6.95743 18.9534L13.6303 25.388L14.281 24.7131ZM7.60818 18.2786L8.25903 17.6038C8.25903 17.6038 8.25756 17.6024 8.25469 17.599L7.53396 18.1985L6.81323 18.798C6.85635 18.8499 6.90418 18.9021 6.95733 18.9533L7.60818 18.2786ZM7.53396 18.1985L8.18463 17.5236L5.92975 15.3497L5.27908 16.0247L4.62841 16.6996L6.88329 18.8734L7.53396 18.1985ZM5.27908 16.0247L5.92985 15.3498C4.07602 13.5621 4.07599 10.6785 5.92983 8.89093L5.27908 8.21608L4.62833 7.54122C2.00978 10.0662 2.0099 14.1745 4.62831 16.6995L5.27908 16.0247ZM5.27908 8.21608L5.92982 8.89094C7.80297 7.08476 10.8538 7.08476 12.727 8.89094L13.3777 8.21608L14.0285 7.54121C11.429 5.03467 7.22782 5.03467 4.62834 7.54121L5.27908 8.21608ZM13.3777 8.21608L12.7269 8.89089L14.3461 10.4524L14.9969 9.7776L15.6477 9.10279L14.0285 7.54127L13.3777 8.21608ZM14.9969 9.7776L15.6475 10.4526L17.2705 8.88813L16.6199 8.21315L15.9693 7.53816L14.3462 9.10261L14.9969 9.7776Z" fill="#111111"/>
</g>
</svg>
